<svg width="35" height="42" viewBox="0 0 35 42" fill="none" xmlns="http://www.w3.org/2000/svg">
<path d="M28.6654 39.4062C26.4986 41.518 24.1328 41.1846 21.8555 40.1842C19.4454 39.1617 17.2344 39.1172 14.6917 40.1842C11.5079 41.5625 9.8275 41.1623 7.92602 39.4062C-2.86377 28.2246 -1.27183 11.1967 10.9772 10.5742C13.9621 10.7298 16.0405 12.2192 17.7872 12.3526C20.3962 11.8191 22.8946 10.2853 25.6805 10.4853C29.0192 10.7521 31.5397 12.0859 33.198 14.4867C26.2996 18.6436 27.9358 27.7801 34.2593 30.3365C32.999 33.6709 31.3628 36.9832 28.6433 39.4284L28.6654 39.4062ZM17.5661 10.4409C17.2344 5.48363 21.2364 1.39336 25.8353 0.993225C26.4765 6.7285 20.6615 10.9966 17.5661 10.4409Z" fill="white"/>
</svg>
