<svg width="29" height="22" viewBox="0 0 29 22" fill="none" xmlns="http://www.w3.org/2000/svg">
<path d="M27.1706 11.1823C26.1971 9.81343 25.5671 8.15239 24.7271 6.62062C26.8818 6.37624 28.6406 4.68155 28.1834 2.83634C27.7328 1.02301 24.6659 -0.466259 22.6118 0.812283C21.7959 1.32051 21.3081 1.7951 20.9099 2.52822C20.8749 2.59197 20.8334 2.65926 20.7874 2.73009C18.8931 1.87832 16.7187 1.44978 14.5443 1.44978C12.3678 1.44978 10.1978 1.88009 8.3012 2.73009C8.25526 2.65926 8.2137 2.59197 8.1787 2.52822C7.7762 1.7951 7.29276 1.32051 6.47463 0.812283C4.42276 -0.464488 1.3537 1.02301 0.905258 2.83634C0.448071 4.68155 2.20463 6.37801 4.36151 6.62062C3.5237 8.15239 2.8937 9.81166 1.91588 11.1823C-0.109742 14.0262 0.294946 17.0774 3.37276 19.3033C5.26276 20.6669 7.71495 21.2583 10.2699 21.4868C11.6874 21.6125 13.1378 21.6249 14.5443 21.5948C15.9487 21.6249 17.3968 21.6125 18.8165 21.4868C21.3715 21.2583 23.8215 20.6669 25.7137 19.3033C28.7937 17.0774 29.1984 14.0262 27.1706 11.1823Z" fill="#571FB1"/>
<path d="M12.3918 17.412C12.243 17.9663 12.5274 18.6357 12.6784 19.1616C12.7549 19.4325 12.8534 19.7654 13.1049 19.9354C13.2515 20.0382 13.4221 20.0718 13.5971 20.0807C13.9493 20.0948 14.2905 20.1657 14.4743 19.7902C14.5246 19.6893 14.6143 19.5211 14.7499 19.6202C14.8746 19.7141 14.8309 19.877 14.9752 19.9673C15.4215 20.24 16.128 20.1515 16.373 19.6521C16.6509 19.0819 16.7143 18.4993 16.8368 17.8972L16.2265 17.1057L14.5224 16.6984L12.3918 17.412Z" fill="#571FB1"/>
<path d="M9.30521 12.8114C9.30302 13.7216 8.58552 14.4547 7.71489 14.453C6.83989 14.4459 6.13114 13.7074 6.13552 12.7919C6.14427 11.8835 6.85739 11.1468 7.73239 11.1521C8.60302 11.1557 9.31177 11.9012 9.30521 12.8114ZM19.7855 12.8114C19.7877 13.7216 20.503 14.4547 21.3758 14.453C22.2508 14.4459 22.9596 13.7074 22.9552 12.7919C22.9465 11.8835 22.2311 11.1468 21.3583 11.1521C20.4855 11.1557 19.779 11.9012 19.7855 12.8114ZM18.9455 17.0508C18.7421 16.7303 18.1536 17.0065 17.8452 17.072C17.6199 17.1181 17.3771 17.1039 17.1386 17.1039C16.6749 17.1039 16.2002 17.0844 15.7671 16.9374C15.6118 16.8843 15.393 16.8011 15.2946 16.6807C14.9883 16.3141 15.3843 15.542 14.8046 15.3154C14.483 15.1896 14.1265 15.3207 14.0543 15.5739C14.0236 15.6855 13.9974 15.813 14.0018 15.9281C14.0105 16.0467 13.9777 16.1229 13.9558 16.2433C13.9405 16.3283 13.9405 16.3903 13.9077 16.4646C13.8552 16.5868 13.7261 16.7285 13.5861 16.8082C13.2668 16.9923 12.908 17.1039 12.5296 17.1606C12.1227 17.219 11.6852 17.2013 11.3002 17.111C11.0355 17.049 10.7446 16.8383 10.4733 16.8365C10.224 16.8347 10.0774 17.01 10.0949 17.196C10.1386 17.6334 10.6899 17.7786 11.1274 17.8901C11.7771 18.0548 12.5077 18.0566 13.153 17.8707C13.5446 17.7573 13.9536 17.6104 14.3758 17.5519C14.7893 17.4953 15.0299 17.6405 15.4083 17.7255C15.824 17.8211 16.2155 17.9574 16.6486 17.9964C17.0949 18.0371 17.5521 17.9982 17.983 17.8901C18.3308 17.8016 19.103 17.582 18.9958 17.1659C18.9827 17.1216 18.9652 17.0826 18.9455 17.0508Z" fill="white"/>
<path d="M12.7637 14.2565C12.3371 14.2547 12.0703 14.3875 12.3546 14.8762C12.9431 15.8856 14.6121 16.3443 15.7956 15.744C15.9881 15.6466 16.2375 15.5332 16.3993 15.4057C16.6006 15.2499 16.7428 14.9807 16.8346 14.7718C16.9506 14.515 16.9703 14.1732 16.5568 14.1148C16.2331 14.0687 15.9115 14.2848 15.6075 14.3432C15.2028 14.4247 14.6975 14.4601 14.2818 14.4601C14.0303 14.4619 13.2843 14.26 12.7637 14.2565Z" fill="white"/>
<path d="M6.82234 4.01928C6.76109 4.16271 6.66266 4.31146 6.55766 4.43011C6.38047 4.63021 6.22516 4.88167 5.95391 5.01272C5.67172 5.1473 5.24953 5.01449 4.96953 4.9224C4.59328 4.79844 4.16016 4.61959 3.90203 4.35928C3.7675 4.22784 3.65767 4.08105 3.57609 3.92365C3.20422 3.16042 4.17547 2.31574 5.10953 2.49636C5.57328 2.58667 5.96047 2.83636 6.27984 3.11438C6.42859 3.24542 6.54672 3.36938 6.63641 3.53053C6.71734 3.67396 6.87266 3.81563 6.83328 3.98032C6.83328 3.99272 6.82891 4.00688 6.82234 4.01928ZM23.443 5.01272C23.1717 4.88344 23.0142 4.63021 22.8348 4.43011C22.732 4.31146 22.6358 4.16094 22.5745 4.01928L22.5614 3.98032C22.522 3.81386 22.6752 3.67396 22.7583 3.53053C22.848 3.36938 22.9639 3.24542 23.1148 3.11438C23.4342 2.83636 23.8236 2.58667 24.2852 2.49636C25.217 2.31574 26.1905 3.16219 25.8142 3.92365C25.7377 4.08303 25.6239 4.22469 25.4927 4.35928C25.2345 4.61959 24.7992 4.79844 24.4252 4.9224C24.1473 5.01449 23.7252 5.1473 23.443 5.01272Z" fill="white"/>
</svg>
