<svg width="33" height="35" viewBox="0 0 33 35" fill="none" xmlns="http://www.w3.org/2000/svg">
<g clip-path="url(#clip0_59_37177)">
<path d="M24.3394 22.849C28.5237 20.5723 31.6957 18.8375 31.9691 18.7026C32.8438 18.2418 33.747 17.0219 31.9691 16.0743C31.3951 15.7763 28.3046 14.0956 24.3394 11.928L18.8426 17.429L24.3394 22.8489V22.849Z" fill="#FFD900"/>
<path d="M18.8423 17.429L1.33978 34.9089C1.75061 34.9628 2.21441 34.8549 2.76123 34.557C3.90927 33.9343 16.0796 27.3483 24.3391 22.8503L18.8423 17.429Z" fill="#F43249"/>
<path d="M18.8421 17.429L24.3389 11.955C24.3389 11.955 3.99211 0.951626 2.76106 0.302082C2.29725 0.0298738 1.7775 -0.0509839 1.31241 0.0298738L18.8421 17.429Z" fill="#00EE76"/>
<path d="M18.8423 17.4292L1.31256 0.0300903C0.601127 0.193083 -9.15527e-05 0.81593 -9.15527e-05 2.08973V32.8495C-9.15527e-05 34.0153 0.465131 34.8551 1.33976 34.9361L18.8423 17.4292Z" fill="#00D3FF"/>
</g>
<defs>
<clipPath id="clip0_59_37177">
<rect width="33" height="35" fill="white"/>
</clipPath>
</defs>
</svg>
