<svg width="24" height="28" viewBox="0 0 24 28" fill="none" xmlns="http://www.w3.org/2000/svg">
<path d="M2.56665 8.75V26.25C2.56665 27.2125 3.35415 28 4.31665 28H20.0667C21.0292 28 21.8167 27.2125 21.8167 26.25V8.75H2.56665ZM7.81665 24.5H6.06665V12.25H7.81665V24.5ZM11.3167 24.5H9.56665V12.25H11.3167V24.5ZM14.8167 24.5H13.0667V12.25H14.8167V24.5ZM18.3167 24.5H16.5667V12.25H18.3167V24.5ZM22.2542 3.5H16.5667V1.3125C16.5653 0.964829 16.4265 0.631792 16.1807 0.38595C15.9349 0.140107 15.6018 0.00138241 15.2542 0L9.12915 0C8.78148 0.00138241 8.44844 0.140107 8.2026 0.38595C7.95676 0.631792 7.81803 0.964829 7.81665 1.3125V3.5H2.12915C1.78134 3.50092 1.44803 3.6395 1.20209 3.88544C0.956152 4.13138 0.817574 4.46469 0.81665 4.8125V7H23.5667V4.8125C23.5657 4.46469 23.4271 4.13138 23.1812 3.88544C22.9353 3.6395 22.602 3.50092 22.2542 3.5ZM14.8167 3.5H9.56665V1.77275H14.8167V3.5Z" fill="#121619"/>
</svg>
